HIERARCHY
ROOT hip
{
  OFFSET 0 0 0
  CHANNELS 6 Xposition Yposition Zposition Zrotation Yrotation Xrotation
  JOINT abdomen
  {
    OFFSET 0 20.6881 -0.73152
    CHANNELS 3 Zrotation Xrotation Yrotation
    JOINT chest
    {
      OFFSET 0 11.7043 -0.48768
      CHANNELS 3 Zrotation Xrotation Yrotation
      JOINT neck
      {
        OFFSET 0 22.1894 -2.19456
        CHANNELS 3 Zrotation Xrotation Yrotation
        JOINT head
        {
          OFFSET -0.24384 7.07133 1.2192
          CHANNELS 3 Zrotation Xrotation Yrotation
          JOINT leftEye
          {
            OFFSET 4.14528 8.04674 8.04672
            CHANNELS 3 Zrotation Xrotation Yrotation
            End Site
            {
              OFFSET 1 0 0
            }
          }
          JOINT rightEye
          {
            OFFSET -3.6576 8.04674 8.04672
            CHANNELS 3 Zrotation Xrotation Yrotation
            End Site
            {
              OFFSET 1 0 0
            }
          }
        }
      }
      JOINT rCollar
      {
        OFFSET -2.68224 19.2634 -4.8768
        CHANNELS 3 Zrotation Xrotation Yrotation
        JOINT rShldr
        {
          OFFSET -8.77824 -1.95073 1.46304
          CHANNELS 3 Zrotation Xrotation Yrotation
          JOINT rForeArm
          {
            OFFSET -28.1742 -1.7115 0.48768
            CHANNELS 3 Zrotation Xrotation Yrotation
            JOINT rHand
            {
              OFFSET -22.5879 0.773209 7.07136
              CHANNELS 3 Zrotation Xrotation Yrotation
              JOINT rThumb1
              {
                OFFSET -1.2192 -0.487915 3.41376
                CHANNELS 3 Zrotation Xrotation Yrotation
                JOINT rThumb2
                {
                  OFFSET -3.37035 -0.52449 3.41376
                  CHANNELS 3 Zrotation Xrotation Yrotation
                  End Site
                  {
                    OFFSET -1.78271 -1.18214 1.43049
                  }
                }
              }
              JOINT rIndex1
              {
                OFFSET -7.75947 0.938293 5.60832
                CHANNELS 3 Zrotation Xrotation Yrotation
                JOINT rIndex2
                {
                  OFFSET -2.54057 -0.884171 1.56538
                  CHANNELS 3 Zrotation Xrotation Yrotation
                  End Site
                  {
                    OFFSET -1.62519 -0.234802 1.16502
                  }
                }
              }
              JOINT rMid1
              {
                OFFSET -8.24714 1.18213 3.41376
                CHANNELS 3 Zrotation Xrotation Yrotation
                JOINT rMid2
                {
                  OFFSET -3.10165 -0.590103 1.0647
                  CHANNELS 3 Zrotation Xrotation Yrotation
                  End Site
                  {
                    OFFSET -2.48547 -0.328903 0.83742
                  }
                }
              }
              JOINT rRing1
              {
                OFFSET -8.82822 0.546677 1.51678
                CHANNELS 3 Zrotation Xrotation Yrotation
                JOINT rRing2
                {
                  OFFSET -2.60934 -0.819778 -0.0198488
                  CHANNELS 3 Zrotation Xrotation Yrotation
                  End Site
                  {
                    OFFSET -2.33842 -0.294052 0.168128
                  }
                }
              }
              JOINT rPinky1
              {
                OFFSET -8.27202 -0.0477905 -0.4584
                CHANNELS 3 Zrotation Xrotation Yrotation
                JOINT rPinky2
                {
                  OFFSET -1.82734 -0.647385 -0.700984
                  CHANNELS 3 Zrotation Xrotation Yrotation
                  End Site
                  {
                    OFFSET -1.69225 -0.51767 -0.607171
                  }
                }
              }
            }
          }
        }
      }
      JOINT lCollar
      {
        OFFSET 2.68224 19.2634 -4.8768
        CHANNELS 3 Zrotation Xrotation Yrotation
        JOINT lShldr
        {
          OFFSET 8.77824 -1.95073 1.46304
          CHANNELS 3 Zrotation Xrotation Yrotation
          JOINT lForeArm
          {
            OFFSET 28.1742 -1.7115 0.48768
            CHANNELS 3 Zrotation Xrotation Yrotation
            JOINT lHand
            {
              OFFSET 22.5879 0.773209 7.07136
              CHANNELS 3 Zrotation Xrotation Yrotation
              JOINT lThumb1
              {
                OFFSET 1.2192 -0.487915 3.41376
                CHANNELS 3 Zrotation Xrotation Yrotation
                JOINT lThumb2
                {
                  OFFSET 3.37035 -0.52449 3.41376
                  CHANNELS 3 Zrotation Xrotation Yrotation
                  End Site
                  {
                    OFFSET 1.78271 -1.18214 1.43049
                  }
                }
              }
              JOINT lIndex1
              {
                OFFSET 7.75947 0.938293 5.60832
                CHANNELS 3 Zrotation Xrotation Yrotation
                JOINT lIndex2
                {
                  OFFSET 2.54057 -0.884171 1.56538
                  CHANNELS 3 Zrotation Xrotation Yrotation
                  End Site
                  {
                    OFFSET 1.62519 -0.234802 1.16502
                  }
                }
              }
              JOINT lMid1
              {
                OFFSET 8.24714 1.18213 3.41376
                CHANNELS 3 Zrotation Xrotation Yrotation
                JOINT lMid2
                {
                  OFFSET 3.10165 -0.590103 1.0647
                  CHANNELS 3 Zrotation Xrotation Yrotation
                  End Site
                  {
                    OFFSET 2.48547 -0.328903 0.83742
                  }
                }
              }
              JOINT lRing1
              {
                OFFSET 8.82822 0.546677 1.51678
                CHANNELS 3 Zrotation Xrotation Yrotation
                JOINT lRing2
                {
                  OFFSET 2.60934 -0.819778 -0.0198488
                  CHANNELS 3 Zrotation Xrotation Yrotation
                  End Site
                  {
                    OFFSET 2.33842 -0.294052 0.168128
                  }
                }
              }
              JOINT lPinky1
              {
                OFFSET 8.27202 -0.0477905 -0.4584
                CHANNELS 3 Zrotation Xrotation Yrotation
                JOINT lPinky2
                {
                  OFFSET 1.82734 -0.647385 -0.700984
                  CHANNELS 3 Zrotation Xrotation Yrotation
                  End Site
                  {
                    OFFSET 1.69225 -0.51767 -0.607171
                  }
                }
              }
            }
          }
        }
      }
    }
  }
  JOINT rButtock
  {
    OFFSET -8.77824 4.35084 1.2192
    CHANNELS 3 Zrotation Xrotation Yrotation
    JOINT rThigh
    {
      OFFSET 0 -1.70687 -2.19456
      CHANNELS 3 Zrotation Xrotation Yrotation
      JOINT rShin
      {
        OFFSET 0 -36.8199 0.73152
        CHANNELS 3 Zrotation Xrotation Yrotation
        JOINT rFoot
        {
          OFFSET 0.73152 -45.1104 -5.12064
          CHANNELS 3 Zrotation Xrotation Yrotation
          End Site
          {
            OFFSET -1.1221 -3.69964 12.103
          }
        }
      }
    }
  }
  JOINT lButtock
  {
    OFFSET 8.77824 4.35084 1.2192
    CHANNELS 3 Zrotation Xrotation Yrotation
    JOINT lThigh
    {
      OFFSET 0 -1.70687 -2.19456
      CHANNELS 3 Zrotation Xrotation Yrotation
      JOINT lShin
      {
        OFFSET 0 -36.8199 0.73152
        CHANNELS 3 Zrotation Xrotation Yrotation
        JOINT lFoot
        {
          OFFSET -0.73152 -45.1104 -5.12064
          CHANNELS 3 Zrotation Xrotation Yrotation
          End Site
          {
            OFFSET 1.1221 -3.69964 12.103
          }
        }
      }
    }
  }
}
MOTION
Frames:	4
Frame Time:	0.00833333
59.0708 85.415 82.2013 0.0 0.0 0.0 1.67537 -0.00249554 0.0455946 0.46193 0.00238705 0.0799906 1.07768e-14 0.0 2.48481e-16 3.22373e-14 3.18055e-15 8.66577e-16 -0.0 0.0 0.0 -0.0 0.0 0.0 5.31617e-15 -2.87306e-17 1.98785e-16 1.13315e-13 -1.55301e-16 4.57205e-15 1.90237e-12 -5.90589e-13 2.22639e-14 2.17746e-11 4.66075e-13 6.23389e-13 5.13545e-11 -2.76885e-13 1.40581e-12 8.8681e-11 -4.80264e-13 2.41802e-12 5.13568e-11 -2.77503e-13 1.39308e-12 7.73091 5.47488 0.417314 5.13553e-11 -2.77006e-13 1.39944e-12 2.90554 0.965183 0.102902 5.13602e-11 -2.77305e-13 1.39865e-12 10.2786 0.731801 0.0259123 5.13469e-11 -2.7472e-13 1.40262e-12 2.22167 -0.733487 -0.20892 5.31916e-15 -2.98953e-17 0.0 1.08592e-13 -3.35449e-16 2.38542e-15 1.90644e-12 5.5123e-13 4.77083e-14 2.17778e-11 -6.77433e-13 6.04305e-13 5.13698e-11 -2.78823e-13 1.39308e-12 8.87204e-11 -4.86625e-13 2.41245e-12 5.13644e-11 -2.77503e-13 1.40581e-12 -7.73091 5.47488 -0.417314 5.13695e-11 -2.78895e-13 1.39626e-12 -2.90554 0.965183 -0.102902 5.1368e-11 -2.79193e-13 1.40024e-12 -10.2786 0.731801 -0.0259123 5.13773e-11 -2.7472e-13 1.39626e-12 -2.22167 -0.733487 0.20892 -2.03217e-16 0.0 -3.88251e-19 1.77118 -6.79373 -0.168015 0.00306143 6.74208 0.0830255 -0.520355 0.0465628 0.0600359 2.03217e-16 0.0 3.88251e-19 0.777806 -1.92427 0.00415894 0.00908698 -2.07858 0.0749454 0.493337 3.99766 -0.137536
58.2623 82.9212 80.7483 -2.3096 -2.6165 5.2962 -0.0717184 -0.600481 -1.1158 1.95813 1.68965 -0.350807 -3.7899 4.26912 -3.72433 4.03167 -2.28604 -7.07374 -0.0 0.0 0.0 -0.0 0.0 0.0 -1.88241e-14 -4.05103e-14 1.41937e-14 20.1905 9.64663 -0.0723236 -6.22317 -3.38727 9.03543 0.00334712 -1.28338 -0.180204 3.23928e-10 -5.64736e-10 1.46908e-10 5.60161e-10 -9.76908e-10 2.54831e-10 3.23931e-10 -5.64737e-10 1.46894e-10 7.73091 5.47488 0.417314 3.2393e-10 -5.64738e-10 1.46902e-10 2.90554 0.965183 0.102902 3.23931e-10 -5.64736e-10 1.46899e-10 10.2786 0.731801 0.0259123 3.2392e-10 -5.64736e-10 1.46904e-10 2.22167 -0.733487 -0.20892 -1.87699e-14 -4.05117e-14 1.40403e-14 -20.6163 8.12822 1.05411 6.39593 -3.52804 -9.22221 -0.10089 -7.05573 0.964674 4.47527e-10 1.68689e-10 -1.14407e-10 7.73631e-10 2.91348e-10 -1.89244e-10 4.47522e-10 1.68692e-10 -1.14394e-10 -7.73091 5.47488 -0.417314 4.47528e-10 1.6869e-10 -1.14406e-10 -2.90554 0.965183 -0.102902 4.47525e-10 1.6869e-10 -1.14402e-10 -10.2786 0.731801 -0.0259123 4.47532e-10 1.68694e-10 -1.14406e-10 -2.22167 -0.733487 0.20892 -2.03217e-16 0.0 -3.88251e-19 0.181107 -13.3796 -2.18145 -0.0567559 22.1956 0.284954 -0.59612 4.24145 -1.50962 2.03217e-16 0.0 3.88251e-19 0.183394 -9.39606 0.278045 -0.0366705 10.1057 -0.126354 1.07094 -1.1119 4.72579
58.2833 82.925 80.7575 -2.263 -2.4889 5.2563 -1.94006 -1.23411 -2.34364 3.56614 3.47493 -0.807315 -7.18068 8.72267 -7.73039 7.6732 -4.58423 -14.5896 -0.0 0.0 0.0 -0.0 0.0 0.0 -4.63952e-14 -8.51906e-14 2.801e-14 41.5623 19.84 -0.152556 -11.655 -6.68795 18.6876 -0.00190205 -2.64077 -0.371106 6.53566e-10 -1.21155e-09 3.13043e-10 1.13027e-09 -2.09577e-09 5.43106e-10 6.53571e-10 -1.21156e-09 3.13027e-10 7.73091 5.47488 0.417314 6.53569e-10 -1.21156e-09 3.13038e-10 2.90554 0.965183 0.102902 6.53567e-10 -1.21155e-09 3.13032e-10 10.2786 0.731801 0.0259123 6.53558e-10 -1.21156e-09 3.13039e-10 2.22167 -0.733487 -0.20892 -4.6285e-14 -8.51925e-14 2.79075e-14 -42.7461 16.7104 2.23908 11.9352 -6.95059 -19.0779 0.0585002 -14.5079 2.03433 9.17593e-10 3.91803e-10 -2.68692e-10 1.58685e-09 6.77441e-10 -4.45988e-10 9.17589e-10 3.91806e-10 -2.6868e-10 -7.73091 5.47488 -0.417314 9.17595e-10 3.91804e-10 -2.68693e-10 -2.90554 0.965183 -0.102902 9.17591e-10 3.91804e-10 -2.68689e-10 -10.2786 0.731801 -0.0259123 9.17596e-10 3.91808e-10 -2.68692e-10 -2.22167 -0.733487 0.20892 -2.03217e-16 0.0 -3.88251e-19 -2.03264 -20.3028 -4.46711 -0.271576 38.5295 0.582318 -0.423765 8.66795 -3.19398 2.03217e-16 0.0 3.88251e-19 -0.360837 -17.294 0.584978 0.0143308 22.9878 -0.364044 2.62601 -6.42352 9.93475
58.2995 82.9245 80.7577 -2.2211 -2.4031 5.2562 -3.63861 -1.79356 -3.44011 5.02689 5.06315 -1.21669 -9.68179 12.5884 -11.42 10.4357 -6.44074 -21.3455 -0.0 0.0 0.0 -0.0 0.0 0.0 -6.71047e-14 -1.21473e-13 4.21835e-14 60.6534 28.9397 -0.244424 -15.5636 -9.15265 27.4366 -0.0142236 -3.85 -0.5417 8.69075e-10 -1.69365e-09 4.37911e-10 1.50312e-09 -2.92976e-09 7.59659e-10 8.6908e-10 -1.69366e-09 4.37895e-10 7.73091 5.47488 0.417314 8.69079e-10 -1.69366e-09 4.37907e-10 2.90554 0.965183 0.102902 8.69073e-10 -1.69365e-09 4.37899e-10 10.2786 0.731801 0.0259123 8.69067e-10 -1.69366e-09 4.37907e-10 2.22167 -0.733487 -0.20892 -6.69481e-14 -1.21475e-13 4.2121e-14 -62.8201 24.35 3.43659 15.8892 -9.48897 -28.0303 0.453501 -21.1423 3.07958 1.23984e-09 5.06626e-10 -3.46008e-10 2.14345e-09 8.75017e-10 -5.72558e-10 1.23984e-09 5.0663e-10 -3.45995e-10 -7.73091 5.47488 -0.417314 1.23985e-09 5.06628e-10 -3.4601e-10 -2.90554 0.965183 -0.102902 1.23984e-09 5.06628e-10 -3.46007e-10 -10.2786 0.731801 -0.0259123 1.23984e-09 5.06631e-10 -3.46009e-10 -2.22167 -0.733487 0.20892 -2.03217e-16 0.0 -3.88251e-19 -4.53375 -26.4207 -6.7397 -0.707535 53.0987 1.04363 -0.0446142 12.5936 -4.75107 2.03217e-16 0.0 3.88251e-19 -0.772845 -24.3373 0.894089 0.169815 34.4728 -0.634375 4.83491 -10.9791 14.7245
